<svg width="26" height="24" viewBox="0 0 26 24" fill="none" xmlns="http://www.w3.org/2000/svg">
<path d="M23.0599 3.93814C21.7259 7.20814 18.6811 11.4781 15.779 14.2681C15.3615 11.6881 13.2638 9.66814 10.6162 9.30814C13.4674 6.44814 17.8461 3.41814 21.1862 2.09814C21.7768 1.87814 22.3674 2.04814 22.734 2.40814C23.1209 2.78814 23.3042 3.35814 23.0599 3.93814Z" fill="#C6C6C6"/>
<path d="M14.8821 15.0909C14.6785 15.2609 14.4748 15.4309 14.2712 15.5909L12.4484 17.0209C12.4484 16.9909 12.4382 16.9509 12.4382 16.9109C12.2957 15.8409 11.7865 14.8509 10.9617 14.0409C10.1267 13.2209 9.08803 12.7209 7.94753 12.5809C7.91698 12.5809 7.87625 12.5709 7.8457 12.5709L9.32225 10.7409C9.46481 10.5609 9.61755 10.3909 9.78048 10.2109L10.4729 10.3009C12.6622 10.6009 14.4239 12.2909 14.7701 14.4309L14.8821 15.0909Z" fill="#C6C6C6"/>
<path d="M11.4713 17.6208C11.4713 18.7208 11.0436 19.7708 10.2289 20.5608C9.60772 21.1808 8.77272 21.6008 7.75442 21.7208L5.25956 21.9908C3.89503 22.1408 2.72398 20.9908 2.87673 19.6408L3.15167 17.1808C3.39606 14.9908 5.25956 13.5908 7.23507 13.5508C7.42855 13.5408 7.64239 13.5508 7.84605 13.5708C8.71161 13.6808 9.54662 14.0708 10.2493 14.7508C10.9315 15.4208 11.3185 16.2108 11.4305 17.0408C11.4509 17.2408 11.4713 17.4308 11.4713 17.6208Z" fill="#C6C6C6"/>
</svg>
