<svg width="32" height="32" viewBox="0 0 32 32" fill="none" xmlns="http://www.w3.org/2000/svg">
<path d="M9.65341 2.66666H7.12008C4.20008 2.66666 2.66675 4.2 2.66675 7.10666V9.64C2.66675 12.5467 4.20008 14.08 7.10675 14.08H9.64008C12.5467 14.08 14.0801 12.5467 14.0801 9.64V7.10666C14.0934 4.2 12.5601 2.66666 9.65341 2.66666Z" fill="white"/>
<path d="M24.8928 2.66666H22.3594C19.4528 2.66666 17.9194 4.2 17.9194 7.10666V9.64C17.9194 12.5467 19.4528 14.08 22.3594 14.08H24.8928C27.7994 14.08 29.3328 12.5467 29.3328 9.64V7.10666C29.3328 4.2 27.7994 2.66666 24.8928 2.66666Z" fill="white"/>
<path d="M24.8928 17.9063H22.3594C19.4528 17.9063 17.9194 19.4396 17.9194 22.3463V24.8796C17.9194 27.7863 19.4528 29.3196 22.3594 29.3196H24.8928C27.7994 29.3196 29.3328 27.7863 29.3328 24.8796V22.3463C29.3328 19.4396 27.7994 17.9063 24.8928 17.9063Z" fill="white"/>
<path d="M9.65341 17.9063H7.12008C4.20008 17.9063 2.66675 19.4396 2.66675 22.3463V24.8796C2.66675 27.7996 4.20008 29.3329 7.10675 29.3329H9.64008C12.5467 29.3329 14.0801 27.7996 14.0801 24.8929V22.3596C14.0934 19.4396 12.5601 17.9063 9.65341 17.9063Z" fill="white"/>
</svg>
