<svg width="220" height="32" viewBox="0 0 220 32" fill="none" xmlns="http://www.w3.org/2000/svg">
<path d="M53.617 10.8796L49.4464 22.6667H46.0869L51.7845 8.44791H53.9224L53.617 10.8796ZM57.0819 22.6667L52.9007 10.8796L52.5638 8.44791H54.7227L60.4519 22.6667H57.0819ZM56.8922 17.3737V19.6687H48.7935V17.3737H56.8922ZM74.3536 8.44791V22.6667H71.1941L65.0331 13.1354V22.6667H61.8737V8.44791H65.0331L71.2046 17.9889V8.44791H74.3536ZM80.4618 8.44791V22.6667H77.313V8.44791H80.4618ZM84.864 8.44791H87.5391L91.4779 18.8873L95.4167 8.44791H98.0918L92.5521 22.6667H90.4037L84.864 8.44791ZM83.4212 8.44791H86.0858L86.5702 18.6237V22.6667H83.4212V8.44791ZM96.8701 8.44791H99.545V22.6667H96.3855V18.6237L96.8701 8.44791ZM108.739 10.8796L104.569 22.6667H101.209L106.907 8.44791H109.044L108.739 10.8796ZM112.204 22.6667L108.023 10.8796L107.686 8.44791H109.845L115.574 22.6667H112.204ZM112.014 17.3737V19.6687H103.916V17.3737H112.014ZM126.853 20.3815V22.6667H119.134V20.3815H126.853ZM120.155 8.44791V22.6667H116.996V8.44791H120.155ZM134.457 15.4596V17.6667H128.507V15.4596H134.457ZM147.4 14.2389V16.5241H139.396V14.2389H147.4ZM140.334 8.44791V22.6667H137.174V8.44791H140.334ZM149.655 8.44791V22.6667H146.506V8.44791H149.655ZM164.999 15.2252V15.8991C164.999 16.9799 164.84 17.9499 164.524 18.8092C164.209 19.6687 163.763 20.4011 163.187 21.0065C162.612 21.6055 161.923 22.0644 161.123 22.3835C160.33 22.7025 159.448 22.862 158.479 22.862C157.517 22.862 156.637 22.7025 155.836 22.3835C155.043 22.0644 154.355 21.6055 153.771 21.0065C153.189 20.4011 152.736 19.6687 152.414 18.8092C152.098 17.9499 151.94 16.9799 151.94 15.8991V15.2252C151.94 14.138 152.098 13.168 152.414 12.3151C152.729 11.4557 153.175 10.7233 153.751 10.1178C154.334 9.51237 155.022 9.05013 155.815 8.73111C156.616 8.4121 157.497 8.25259 158.459 8.25259C159.428 8.25259 160.308 8.4121 161.102 8.73111C161.903 9.05013 162.59 9.51237 163.167 10.1178C163.749 10.7233 164.198 11.4557 164.514 12.3151C164.838 13.168 164.999 14.138 164.999 15.2252ZM161.808 15.8991V15.2057C161.808 14.4505 161.735 13.7864 161.586 13.2135C161.438 12.6406 161.221 12.1588 160.934 11.7682C160.646 11.3776 160.295 11.0846 159.88 10.8893C159.466 10.6875 158.993 10.5866 158.459 10.5866C157.926 10.5866 157.451 10.6875 157.037 10.8893C156.63 11.0846 156.282 11.3776 155.994 11.7682C155.714 12.1588 155.5 12.6406 155.352 13.2135C155.205 13.7864 155.13 14.4505 155.13 15.2057V15.8991C155.13 16.6477 155.205 17.3119 155.352 17.8913C155.5 18.4641 155.717 18.9492 156.005 19.3464C156.292 19.7369 156.643 20.0332 157.059 20.2351C157.473 20.4368 157.946 20.5377 158.479 20.5377C159.013 20.5377 159.487 20.4368 159.901 20.2351C160.315 20.0332 160.663 19.7369 160.944 19.3464C161.226 18.9492 161.438 18.4641 161.586 17.8913C161.735 17.3119 161.808 16.6477 161.808 15.8991ZM175.741 8.44791H178.89V17.8424C178.89 18.9361 178.637 19.8575 178.131 20.6061C177.634 21.3548 176.942 21.918 176.056 22.2956C175.179 22.6732 174.168 22.862 173.024 22.862C171.879 22.862 170.861 22.6732 169.97 22.2956C169.085 21.918 168.389 21.3548 167.885 20.6061C167.386 19.8575 167.137 18.9361 167.137 17.8424V8.44791H170.296V17.8424C170.296 18.4805 170.405 19.0013 170.622 19.4049C170.841 19.8085 171.153 20.1048 171.56 20.2936C171.974 20.4824 172.461 20.5768 173.024 20.5768C173.599 20.5768 174.088 20.4824 174.487 20.2936C174.894 20.1048 175.203 19.8085 175.415 19.4049C175.632 19.0013 175.741 18.4805 175.741 17.8424V8.44791ZM189.475 18.946C189.475 18.692 189.432 18.4641 189.348 18.2624C189.271 18.054 189.122 17.8652 188.905 17.696C188.688 17.5201 188.382 17.3476 187.989 17.1784C187.595 17.0091 187.086 16.8333 186.462 16.6511C185.766 16.4427 185.106 16.2083 184.482 15.9479C183.864 15.6875 183.316 15.3848 182.839 15.0397C182.369 14.6881 181.996 14.2812 181.723 13.8191C181.456 13.3568 181.323 12.8197 181.323 12.2077C181.323 11.6152 181.463 11.0781 181.745 10.5964C182.025 10.1081 182.417 9.69139 182.924 9.34635C183.428 8.99478 184.025 8.72461 184.714 8.53581C185.408 8.34699 186.17 8.25259 186.999 8.25259C188.129 8.25259 189.115 8.44139 189.958 8.81901C190.8 9.19661 191.453 9.71418 191.918 10.3717C192.388 11.0293 192.622 11.7812 192.622 12.6276H189.485C189.485 12.2109 189.39 11.8464 189.2 11.5338C189.017 11.2148 188.737 10.9642 188.357 10.7819C187.985 10.5996 187.515 10.5085 186.947 10.5085C186.399 10.5085 185.942 10.5866 185.578 10.7428C185.213 10.8926 184.938 11.0976 184.756 11.3581C184.573 11.612 184.482 11.8984 184.482 12.2174C184.482 12.4583 184.546 12.6764 184.672 12.8717C184.804 13.067 185.001 13.2493 185.262 13.4187C185.52 13.5879 185.841 13.7473 186.219 13.8972C186.599 14.0469 187.037 14.1933 187.536 14.3365C188.372 14.5709 189.105 14.8347 189.738 15.1276C190.376 15.4205 190.91 15.7493 191.338 16.1139C191.767 16.4785 192.089 16.8919 192.307 17.3541C192.525 17.8164 192.634 18.3405 192.634 18.9264C192.634 19.5449 192.503 20.0983 192.244 20.5865C191.984 21.0749 191.609 21.4883 191.117 21.8268C190.625 22.1653 190.04 22.4225 189.358 22.5983C188.677 22.7741 187.916 22.862 187.073 22.862C186.314 22.862 185.566 22.7708 184.83 22.5885C184.093 22.3997 183.423 22.1165 182.819 21.7389C182.222 21.3613 181.745 20.8796 181.387 20.2936C181.027 19.7077 180.849 19.0143 180.849 18.2136H184.019C184.019 18.6563 184.093 19.0305 184.239 19.3365C184.387 19.6425 184.594 19.89 184.86 20.0788C185.135 20.2676 185.459 20.4043 185.83 20.4889C186.209 20.5736 186.623 20.6159 187.073 20.6159C187.62 20.6159 188.07 20.5443 188.421 20.4011C188.779 20.2579 189.042 20.0592 189.21 19.8053C189.386 19.5515 189.475 19.2649 189.475 18.946ZM205.072 20.3815V22.6667H196.909V20.3815H205.072ZM197.941 8.44791V22.6667H194.782V8.44791H197.941ZM204.008 14.2389V16.4655H196.909V14.2389H204.008ZM205.06 8.44791V10.7428H196.909V8.44791H205.06ZM214.897 18.946C214.897 18.692 214.855 18.4641 214.77 18.2624C214.694 18.054 214.546 17.8652 214.329 17.696C214.11 17.5201 213.806 17.3476 213.412 17.1784C213.019 17.0091 212.51 16.8333 211.885 16.6511C211.19 16.4427 210.53 16.2083 209.905 15.9479C209.288 15.6875 208.74 15.3848 208.262 15.0397C207.792 14.6881 207.42 14.2812 207.147 13.8191C206.879 13.3568 206.745 12.8197 206.745 12.2077C206.745 11.6152 206.886 11.0781 207.167 10.5964C207.449 10.1081 207.841 9.69139 208.347 9.34635C208.852 8.99478 209.449 8.72461 210.137 8.53581C210.832 8.34699 211.594 8.25259 212.422 8.25259C213.553 8.25259 214.539 8.44139 215.382 8.81901C216.224 9.19661 216.877 9.71418 217.34 10.3717C217.812 11.0293 218.046 11.7812 218.046 12.6276H214.907C214.907 12.2109 214.814 11.8464 214.624 11.5338C214.441 11.2148 214.159 10.9642 213.781 10.7819C213.409 10.5996 212.939 10.5085 212.369 10.5085C211.821 10.5085 211.365 10.5866 211 10.7428C210.635 10.8926 210.362 11.0976 210.179 11.3581C209.997 11.612 209.905 11.8984 209.905 12.2174C209.905 12.4583 209.968 12.6764 210.094 12.8717C210.228 13.067 210.425 13.2493 210.684 13.4187C210.944 13.5879 211.263 13.7473 211.643 13.8972C212.023 14.0469 212.461 14.1933 212.96 14.3365C213.796 14.5709 214.529 14.8347 215.16 15.1276C215.8 15.4205 216.333 15.7493 216.762 16.1139C217.189 16.4785 217.513 16.8919 217.73 17.3541C217.948 17.8164 218.056 18.3405 218.056 18.9264C218.056 19.5449 217.927 20.0983 217.666 20.5865C217.408 21.0749 217.032 21.4883 216.54 21.8268C216.049 22.1653 215.462 22.4225 214.782 22.5983C214.1 22.7741 213.338 22.862 212.496 22.862C211.738 22.862 210.99 22.7708 210.253 22.5885C209.515 22.3997 208.845 22.1165 208.241 21.7389C207.644 21.3613 207.167 20.8796 206.809 20.2936C206.451 19.7077 206.272 19.0143 206.272 18.2136H209.442C209.442 18.6563 209.515 19.0305 209.663 19.3365C209.811 19.6425 210.018 19.89 210.284 20.0788C210.559 20.2676 210.881 20.4043 211.253 20.4889C211.633 20.5736 212.047 20.6159 212.496 20.6159C213.044 20.6159 213.494 20.5443 213.844 20.4011C214.202 20.2579 214.466 20.0592 214.634 19.8053C214.809 19.5515 214.897 19.2649 214.897 18.946Z" fill="#05668D"/>
<path d="M3.61482 23.832L16.556 30.4987C16.5862 30.5133 16.6178 30.52 16.648 30.5333C16.6782 30.5467 16.7214 30.5613 16.7602 30.5747C16.9169 30.6355 17.085 30.6667 17.2548 30.6667C17.4246 30.6667 17.5927 30.6355 17.7495 30.5747C17.7883 30.5613 17.8242 30.5493 17.8616 30.5333C17.899 30.5173 17.9234 30.5133 17.9536 30.4987L30.8948 23.832C31.1416 23.7064 31.3432 23.5164 31.4746 23.2855C31.6059 23.0547 31.6614 22.7931 31.6339 22.5333L30.196 9.33335V2.66668C30.1961 2.41544 30.1196 2.16928 29.9754 1.95657C29.8312 1.74387 29.6251 1.57327 29.381 1.46444C29.1367 1.3556 28.8643 1.31296 28.5952 1.34143C28.326 1.36991 28.0709 1.46832 27.8594 1.62535L21.0638 6.66668H13.4429L6.65025 1.62535C6.43873 1.46832 6.18369 1.36991 5.91448 1.34143C5.64528 1.31296 5.37288 1.3556 5.12867 1.46444C4.88447 1.57327 4.67838 1.74387 4.53419 1.95657C4.39 2.16928 4.31354 2.41544 4.31365 2.66668V9.20001L2.87574 22.5333C2.84832 22.7931 2.90372 23.0547 3.0351 23.2855C3.16648 23.5164 3.36806 23.7064 3.61482 23.832ZM7.18946 9.33335V5.44135L12.0424 9.04135C12.2975 9.23051 12.6145 9.33349 12.9411 9.33335H21.5685C21.8952 9.33349 22.2122 9.23051 22.4672 9.04135L27.3202 5.43868V9.46668L28.6632 21.9267L18.6927 27.0667V23.1107L20.7346 21.8493C20.9919 21.6905 21.2029 21.4751 21.3484 21.2221C21.4941 20.9692 21.5697 20.6867 21.5685 20.4C21.5685 19.9403 21.3716 19.4995 21.021 19.1744C20.6704 18.8493 20.1951 18.6667 19.6993 18.6667H14.8104C14.3146 18.6667 13.8391 18.8493 13.4886 19.1744C13.138 19.4995 12.9411 19.9403 12.9411 20.4C12.9407 20.686 13.0167 20.9677 13.1622 21.2199C13.3077 21.472 13.5183 21.6869 13.7751 21.8453L15.8169 23.1067V27.0667L5.83783 21.9267L7.18946 9.33335ZM12.2221 17.3333C11.6533 17.3333 11.0973 17.1769 10.6244 16.8839C10.1515 16.5909 9.78289 16.1744 9.56523 15.6872C9.34756 15.1999 9.29061 14.6637 9.40157 14.1464C9.51255 13.6292 9.78644 13.154 10.1886 12.7811C10.5908 12.4081 11.1032 12.1541 11.6611 12.0513C12.2189 11.9484 12.7972 12.0012 13.3227 12.203C13.8481 12.4048 14.2973 12.7466 14.6132 13.1852C14.9293 13.6237 15.098 14.1392 15.098 14.6667C15.098 15.3739 14.795 16.0521 14.2556 16.5523C13.7163 17.0524 12.9849 17.3333 12.2221 17.3333ZM19.4117 14.6667C19.4117 14.1392 19.5804 13.6237 19.8964 13.1852C20.2123 12.7466 20.6615 12.4048 21.1869 12.203C21.7125 12.0012 22.2907 11.9484 22.8486 12.0513C23.4063 12.1541 23.9188 12.4081 24.321 12.7811C24.7232 13.154 24.9971 13.6292 25.1081 14.1464C25.219 14.6637 25.162 15.1999 24.9445 15.6872C24.7268 16.1744 24.3581 16.5909 23.8852 16.8839C23.4122 17.1769 22.8563 17.3333 22.2875 17.3333C21.5248 17.3333 20.7934 17.0524 20.254 16.5523C19.7147 16.0521 19.4117 15.3739 19.4117 14.6667Z" fill="#F8961E"/>
</svg>
