<svg width="32" height="32" viewBox="0 0 32 32" fill="none" xmlns="http://www.w3.org/2000/svg">
<path d="M21.5865 2.66667H10.4132C5.55984 2.66667 2.6665 5.56 2.6665 10.4133V21.5733C2.6665 26.44 5.55984 29.3333 10.4132 29.3333H21.5732C26.4265 29.3333 29.3198 26.44 29.3198 21.5867V10.4133C29.3332 5.56 26.4398 2.66667 21.5865 2.66667ZM21.3332 17H16.9998V21.3333C16.9998 21.88 16.5465 22.3333 15.9998 22.3333C15.4532 22.3333 14.9998 21.88 14.9998 21.3333V17H10.6665C10.1198 17 9.6665 16.5467 9.6665 16C9.6665 15.4533 10.1198 15 10.6665 15H14.9998V10.6667C14.9998 10.12 15.4532 9.66667 15.9998 9.66667C16.5465 9.66667 16.9998 10.12 16.9998 10.6667V15H21.3332C21.8798 15 22.3332 15.4533 22.3332 16C22.3332 16.5467 21.8798 17 21.3332 17Z" fill="#C6C6C6"/>
</svg>
