<svg width="32" height="32" viewBox="0 0 32 32" fill="none" xmlns="http://www.w3.org/2000/svg">
<path d="M26.9446 10.4285L16.6779 16.3752C16.2646 16.6152 15.7446 16.6152 15.3179 16.3752L5.05118 10.4285C4.31784 10.0019 4.13118 9.00188 4.69118 8.37522C5.07784 7.93522 5.51784 7.57522 5.98451 7.32188L13.2112 3.32188C14.7579 2.45522 17.2646 2.45522 18.8112 3.32188L26.0379 7.32188C26.5046 7.57522 26.9446 7.94855 27.3312 8.37522C27.8646 9.00188 27.6779 10.0019 26.9446 10.4285Z" fill="white"/>
<path d="M15.2408 18.8519V27.9452C15.2408 28.9585 14.2142 29.6252 13.3075 29.1852C10.5608 27.8385 5.93412 25.3185 5.93412 25.3185C4.30745 24.3985 2.97412 22.0785 2.97412 20.1719V13.2919C2.97412 12.2385 4.08079 11.5719 4.98745 12.0919L14.5742 17.6519C14.9742 17.9052 15.2408 18.3585 15.2408 18.8519Z" fill="white"/>
<path d="M16.7603 18.8519V27.9452C16.7603 28.9585 17.7869 29.6252 18.6936 29.1852C21.4403 27.8385 26.0669 25.3185 26.0669 25.3185C27.6936 24.3985 29.0269 22.0785 29.0269 20.1719V13.2919C29.0269 12.2385 27.9203 11.5719 27.0136 12.0919L17.4269 17.6519C17.0269 17.9052 16.7603 18.3585 16.7603 18.8519Z" fill="white"/>
</svg>
