<svg width="32" height="32" viewBox="0 0 32 32" fill="none" xmlns="http://www.w3.org/2000/svg">
<path fill-rule="evenodd" clip-rule="evenodd" d="M17.0466 0.599976C18.432 0.599976 19.6224 1.55395 19.8831 2.87327L19.999 3.45993C20.4546 5.76589 22.9147 7.14296 25.2023 6.37253L25.7846 6.17644C27.0934 5.73567 28.5407 6.25811 29.2334 7.4214L30.2798 9.17848C30.9726 10.3418 30.7155 11.8182 29.6674 12.6967L29.2012 13.0874C27.3691 14.6229 27.3691 17.3771 29.2012 18.9125L29.6674 19.3032C30.7155 20.1817 30.9726 21.6581 30.2798 22.8215L29.2335 24.5785C28.5407 25.7419 27.0934 26.2643 25.7844 25.8235L25.2024 25.6273C22.9147 24.8568 20.4546 26.2339 19.999 28.54L19.8831 29.1267C19.6224 30.446 18.432 31.4 17.0466 31.4H14.9538C13.5683 31.4 12.3779 30.446 12.1172 29.1268L12.0013 28.5397C11.5456 26.2339 9.08543 24.8568 6.79779 25.6273L6.21588 25.8233C4.90704 26.2643 3.4597 25.7417 2.7669 24.5784L1.72056 22.8215C1.02779 21.6581 1.28476 20.1817 2.33291 19.3032L2.79912 18.9125C4.63115 17.3769 4.63115 14.6229 2.79912 13.0875L2.33291 12.6967C1.28476 11.8182 1.02779 10.3418 1.72056 9.17853L2.76694 7.42144C3.45971 6.25812 4.90702 5.73568 6.21584 6.17648L6.79791 6.37252C9.08551 7.14296 11.5456 5.76599 12.0013 3.46008L12.1172 2.87316C12.3779 1.55389 13.5682 0.599976 14.9538 0.599976H17.0466ZM16.0002 20.4C18.4302 20.4 20.4002 18.43 20.4002 16C20.4002 13.5699 18.4302 11.6 16.0002 11.6C13.57 11.6 11.6001 13.5699 11.6001 16C11.6001 18.43 13.57 20.4 16.0002 20.4Z" fill="#C6C6C6"/>
</svg>
