<svg width="25" height="24" viewBox="0 0 25 24" fill="none" xmlns="http://www.w3.org/2000/svg">
<path d="M21.8928 5.23C20.2533 5.07 18.6138 4.95 16.9642 4.86V4.85L16.7402 3.55C16.5874 2.63 16.3634 1.25 13.9805 1.25H11.3126C8.93991 1.25 8.71588 2.57 8.55295 3.54L8.33911 4.82C7.39209 4.88 6.44506 4.94 5.49804 5.03L3.4207 5.23C2.99301 5.27 2.68752 5.64 2.72825 6.05C2.76898 6.46 3.13557 6.76 3.56326 6.72L5.6406 6.52C10.9766 6 16.3532 6.2 21.7502 6.73C21.7808 6.73 21.8011 6.73 21.8317 6.73C22.2186 6.73 22.5547 6.44 22.5954 6.05C22.626 5.64 22.3205 5.27 21.8928 5.23Z" fill="#C6C6C6"/>
<path d="M20.0192 8.14C19.7748 7.89 19.4388 7.75 19.0925 7.75H6.22122C5.875 7.75 5.52877 7.89 5.29456 8.14C5.06035 8.39 4.92797 8.73 4.94834 9.08L5.57969 19.34C5.6917 20.86 5.83427 22.76 9.38815 22.76H15.9256C19.4795 22.76 19.6222 20.87 19.7341 19.34L20.3654 9.09C20.3858 8.73 20.2534 8.39 20.0192 8.14ZM14.3472 17.75H10.9563C10.5388 17.75 10.1926 17.41 10.1926 17C10.1926 16.59 10.5388 16.25 10.9563 16.25H14.3472C14.7647 16.25 15.111 16.59 15.111 17C15.111 17.41 14.7647 17.75 14.3472 17.75ZM15.2026 13.75H10.1111C9.69364 13.75 9.34742 13.41 9.34742 13C9.34742 12.59 9.69364 12.25 10.1111 12.25H15.2026C15.6201 12.25 15.9663 12.59 15.9663 13C15.9663 13.41 15.6201 13.75 15.2026 13.75Z" fill="#C6C6C6"/>
</svg>
